# xmcd
#
# Track frame offsets: 
#        183
#        17705
#        47428
#
# Disc length: 989 seconds
#
# Revision: 2
# Processed by: cddbd v1.5PL3 Copyright (c) Steve Scherf et al.
# Submitted via: ExactAudioCopy v0.95a5
#
DISCID=1803db03
DTITLE=Power of American Natives - Dance 2 Trance
DYEAR=1992
DGENRE=House
TTITLE0=Airplay Edit
TTITLE1=Vocal Mix
TTITLE2=Ethno Instrument Mix
EXTD=
EXTT0=
EXTT1=
EXTT2=
PLAYORDER=
